<svg width="17" height="18" viewBox="0 0 17 18" fill="none" xmlns="http://www.w3.org/2000/svg">
<path d="M15.8027 9.42384C16.1309 8.99025 16.3125 8.459 16.3125 7.90627C16.3125 7.02931 15.8223 6.19923 15.0332 5.73634C14.8301 5.61719 14.5988 5.55448 14.3633 5.5547H9.67969L9.79688 3.15431C9.82422 2.57423 9.61914 2.02345 9.2207 1.60353C9.02517 1.39655 8.78926 1.23188 8.52757 1.11967C8.26588 1.00747 7.98395 0.950127 7.69922 0.951186C6.68359 0.951186 5.78516 1.63478 5.51562 2.6133L3.83789 8.68752H3.83203V17.0469H13.0566C13.2363 17.0469 13.4121 17.0117 13.5742 16.9414C14.5039 16.5449 15.1035 15.6367 15.1035 14.6289C15.1035 14.3828 15.0684 14.1406 14.998 13.9063C15.3262 13.4727 15.5078 12.9414 15.5078 12.3887C15.5078 12.1426 15.4727 11.9004 15.4023 11.666C15.7305 11.2324 15.9121 10.7012 15.9121 10.1485C15.9082 9.90236 15.873 9.65822 15.8027 9.42384ZM0.6875 9.31252V16.4219C0.6875 16.7676 0.966797 17.0469 1.3125 17.0469H2.58203V8.68752H1.3125C0.966797 8.68752 0.6875 8.96681 0.6875 9.31252Z" fill="#198754" fill-opacity="0.8"/>
</svg>
