<svg width="28" height="28" viewBox="0 0 28 28" fill="none" xmlns="http://www.w3.org/2000/svg">
<path d="M25.2875 17.1089L23.4965 15.5777C23.5812 15.0582 23.625 14.5277 23.625 13.9972C23.625 13.4667 23.5812 12.9363 23.4965 12.4167L25.2875 10.8855C25.4226 10.7699 25.5193 10.6158 25.5647 10.4439C25.6101 10.272 25.6021 10.0903 25.5418 9.923L25.5172 9.8519C25.0241 8.47385 24.2858 7.19638 23.3379 6.0812L23.2887 6.02378C23.1737 5.88857 23.0204 5.79138 22.8491 5.745C22.6777 5.69863 22.4964 5.70526 22.3289 5.76401L20.1058 6.55425C19.2855 5.88159 18.3695 5.35112 17.3797 4.97925L16.9504 2.65503C16.918 2.48014 16.8331 2.31925 16.7071 2.19373C16.5811 2.06821 16.4199 1.984 16.2449 1.95229L16.1711 1.93862C14.7465 1.68159 13.248 1.68159 11.8234 1.93862L11.7496 1.95229C11.5746 1.984 11.4134 2.06821 11.2874 2.19373C11.1613 2.31925 11.0765 2.48014 11.0441 2.65503L10.6121 4.99019C9.63015 5.36214 8.71571 5.89233 7.90506 6.55972L5.66561 5.76401C5.49817 5.70479 5.31667 5.69793 5.14524 5.74433C4.97381 5.79072 4.82055 5.88819 4.70584 6.02378L4.65662 6.0812C3.70983 7.19717 2.97163 8.47443 2.47732 9.8519L2.45272 9.923C2.32967 10.2648 2.43084 10.6476 2.70701 10.8855L4.5199 12.4332C4.43514 12.9472 4.39412 13.4722 4.39412 13.9945C4.39412 14.5195 4.43514 15.0445 4.5199 15.5558L2.70701 17.1035C2.57192 17.2191 2.47524 17.3731 2.42981 17.5451C2.38439 17.717 2.39238 17.8987 2.45272 18.066L2.47732 18.1371C2.97225 19.5152 3.70506 20.7867 4.65662 21.9078L4.70584 21.9652C4.82083 22.1004 4.97409 22.1976 5.14542 22.244C5.31676 22.2903 5.49812 22.2837 5.66561 22.225L7.90506 21.4292C8.7199 22.0992 9.63045 22.6296 10.6121 22.9988L11.0441 25.3339C11.0765 25.5088 11.1613 25.6697 11.2874 25.7952C11.4134 25.9208 11.5746 26.005 11.7496 26.0367L11.8234 26.0503C13.2611 26.3088 14.7334 26.3088 16.1711 26.0503L16.2449 26.0367C16.4199 26.005 16.5811 25.9208 16.7071 25.7952C16.8331 25.6697 16.918 25.5088 16.9504 25.3339L17.3797 23.0097C18.3691 22.6388 19.2903 22.1066 20.1058 21.4347L22.3289 22.225C22.4963 22.2842 22.6778 22.291 22.8493 22.2446C23.0207 22.1982 23.1739 22.1008 23.2887 21.9652L23.3379 21.9078C24.2894 20.7839 25.0222 19.5152 25.5172 18.1371L25.5418 18.066C25.6648 17.7296 25.5637 17.3468 25.2875 17.1089ZM21.5551 12.7394C21.6234 13.1523 21.659 13.5761 21.659 14C21.659 14.4238 21.6234 14.8476 21.5551 15.2605L21.3746 16.357L23.4172 18.1042C23.1075 18.8176 22.7167 19.4929 22.2523 20.1167L19.7148 19.2171L18.8562 19.9226C18.2027 20.4585 17.4754 20.8796 16.6879 21.175L15.6461 21.566L15.1566 24.2183C14.3844 24.3058 13.6047 24.3058 12.8324 24.2183L12.3429 21.5605L11.3094 21.164C10.5301 20.8687 9.80545 20.4476 9.1574 19.9144L8.29881 19.2062L5.7449 20.114C5.28006 19.4878 4.89178 18.8125 4.58006 18.1015L6.64451 16.3378L6.46678 15.2441C6.40115 14.8367 6.36561 14.4156 6.36561 14C6.36561 13.5816 6.39842 13.1632 6.46678 12.7558L6.64451 11.6621L4.58006 9.89839C4.88904 9.18472 5.28006 8.51206 5.7449 7.88589L8.29881 8.7937L9.1574 8.0855C9.80545 7.5523 10.5301 7.1312 11.3094 6.83589L12.3457 6.44487L12.8351 3.78706C13.6035 3.69956 14.3883 3.69956 15.1594 3.78706L15.6488 6.4394L16.6906 6.83042C17.4754 7.12573 18.2055 7.54683 18.859 8.08276L19.7176 8.78823L22.2551 7.88862C22.7199 8.51479 23.1082 9.19019 23.4199 9.90112L21.3773 11.6484L21.5551 12.7394ZM14 8.91401C11.3422 8.91401 9.18748 11.0687 9.18748 13.7265C9.18748 16.3843 11.3422 18.539 14 18.539C16.6578 18.539 18.8125 16.3843 18.8125 13.7265C18.8125 11.0687 16.6578 8.91401 14 8.91401ZM16.1656 15.8921C15.8816 16.177 15.544 16.4029 15.1723 16.5568C14.8007 16.7107 14.4023 16.7896 14 16.789C13.1824 16.789 12.414 16.4691 11.8344 15.8921C11.5495 15.6081 11.3236 15.2705 11.1697 14.8989C11.0158 14.5272 10.9369 14.1288 10.9375 13.7265C10.9375 12.9089 11.2574 12.1406 11.8344 11.5609C12.414 10.9812 13.1824 10.664 14 10.664C14.8176 10.664 15.5859 10.9812 16.1656 11.5609C16.4505 11.8449 16.6764 12.1825 16.8303 12.5542C16.9842 12.9258 17.0631 13.3242 17.0625 13.7265C17.0625 14.5441 16.7426 15.3125 16.1656 15.8921Z" fill="#005B9C"/>
</svg>
