<svg width="32" height="32" viewBox="0 0 32 32" fill="none" xmlns="http://www.w3.org/2000/svg">
<path d="M16.0001 14.75C16.0001 15.0815 16.1318 15.3995 16.3662 15.6339C16.6006 15.8683 16.9186 16 17.2501 16C17.5816 16 17.8996 15.8683 18.134 15.6339C18.3684 15.3995 18.5001 15.0815 18.5001 14.75C18.5001 14.4185 18.3684 14.1005 18.134 13.8661C17.8996 13.6317 17.5816 13.5 17.2501 13.5C16.9186 13.5 16.6006 13.6317 16.3662 13.8661C16.1318 14.1005 16.0001 14.4185 16.0001 14.75ZM27.4688 25.7781L21.7595 11V5.5625H24.0001V3.4375H8.0001V5.5625H10.2407V11L4.53135 25.7781C4.44385 26.0094 4.39697 26.2531 4.39697 26.5C4.39697 27.6031 5.29385 28.5 6.39697 28.5H25.6032C25.8501 28.5 26.0938 28.4531 26.3251 28.3656C27.3563 27.9688 27.8688 26.8094 27.4688 25.7781ZM12.3657 11.3969V5.625H19.6345V11.3969L22.4751 18.75C21.8282 18.5844 21.1595 18.5 20.4782 18.5C18.5657 18.5 16.7532 19.1719 15.3126 20.375C14.2493 21.2632 12.9074 21.7489 11.522 21.7469C10.5001 21.7469 9.51885 21.4875 8.65322 21.0063L12.3657 11.3969ZM6.57822 26.375L7.88135 23.0063C8.99697 23.5719 10.2376 23.875 11.5251 23.875C13.4376 23.875 15.2501 23.2031 16.6907 22C17.7501 21.1187 19.0751 20.6281 20.4813 20.6281C21.5751 20.6281 22.6188 20.925 23.5313 21.475L25.422 26.375H6.57822Z" fill="white"/>
</svg>
