<svg width="32" height="32" viewBox="0 0 32 32" fill="none" xmlns="http://www.w3.org/2000/svg">
<path d="M15.0625 4.75H16.9375C17.1042 4.75 17.1875 4.83333 17.1875 5V27C17.1875 27.1667 17.1042 27.25 16.9375 27.25H15.0625C14.8958 27.25 14.8125 27.1667 14.8125 27V5C14.8125 4.83333 14.8958 4.75 15.0625 4.75Z" fill="#005B9C"/>
<path d="M6 14.8125H27C27.1667 14.8125 27.25 14.8958 27.25 15.0625V16.9375C27.25 17.1042 27.1667 17.1875 27 17.1875H5C4.83333 17.1875 4.75 17.1042 4.75 16.9375V15.0625C4.75 14.8958 4.83333 14.8125 5 14.8125H6Z" fill="#005B9C"/>
</svg>
