<svg width="32" height="32" viewBox="0 0 32 32" fill="none" xmlns="http://www.w3.org/2000/svg">
<path d="M25.7563 21.8719C24.9741 21.0891 24.0602 20.4501 23.0563 19.9844C24.472 18.8375 25.3751 17.0875 25.3751 15.125C25.3751 11.6625 22.4876 8.82188 19.0251 8.875C15.6157 8.92813 12.8688 11.7063 12.8688 15.125C12.8688 17.0875 13.7751 18.8375 15.1876 19.9844C14.1835 20.4498 13.2695 21.0888 12.4876 21.8719C10.7813 23.5813 9.81258 25.8375 9.75008 28.2437C9.74924 28.2771 9.7551 28.3103 9.76729 28.3413C9.77947 28.3724 9.79776 28.4007 9.82106 28.4246C9.84435 28.4485 9.8722 28.4674 9.90294 28.4804C9.93369 28.4933 9.96672 28.5 10.0001 28.5H11.7501C11.8845 28.5 11.997 28.3937 12.0001 28.2594C12.0595 26.4469 12.7938 24.75 14.0845 23.4625C14.7449 22.7986 15.5305 22.2722 16.3957 21.9139C17.2609 21.5555 18.1886 21.3724 19.1251 21.375C21.0282 21.375 22.8188 22.1156 24.1657 23.4625C25.4532 24.75 26.1876 26.4469 26.2501 28.2594C26.2532 28.3937 26.3657 28.5 26.5001 28.5H28.2501C28.2834 28.5 28.3165 28.4933 28.3472 28.4804C28.378 28.4674 28.4058 28.4485 28.4291 28.4246C28.4524 28.4007 28.4707 28.3724 28.4829 28.3413C28.4951 28.3103 28.5009 28.2771 28.5001 28.2437C28.4376 25.8375 27.4688 23.5813 25.7563 21.8719ZM19.1251 19.125C18.0563 19.125 17.0501 18.7094 16.297 17.9531C15.919 17.5781 15.6204 17.1309 15.4191 16.638C15.2178 16.1451 15.1178 15.6167 15.1251 15.0844C15.1345 14.0594 15.5438 13.0688 16.2595 12.3344C17.0095 11.5656 18.0126 11.1375 19.0845 11.125C20.1438 11.1156 21.172 11.5281 21.9282 12.2688C22.7032 13.0281 23.1282 14.0438 23.1282 15.125C23.1282 16.1938 22.7126 17.1969 21.9563 17.9531C21.5853 18.3259 21.144 18.6214 20.6581 18.8226C20.1721 19.0237 19.651 19.1265 19.1251 19.125ZM11.297 15.95C11.2688 15.6781 11.2532 15.4031 11.2532 15.125C11.2532 14.6281 11.3001 14.1438 11.3876 13.6719C11.4095 13.5594 11.3501 13.4438 11.247 13.3969C10.822 13.2063 10.4313 12.9438 10.0938 12.6125C9.69614 12.2269 9.3832 11.7626 9.17497 11.2493C8.96674 10.736 8.8678 10.1849 8.88445 9.63125C8.91258 8.62813 9.3157 7.675 10.0188 6.95625C10.7907 6.16563 11.8282 5.73438 12.9313 5.74688C13.9282 5.75625 14.8907 6.14063 15.6188 6.82188C15.8657 7.05313 16.0782 7.30938 16.2563 7.58438C16.3188 7.68125 16.4407 7.72188 16.547 7.68438C17.097 7.49375 17.6782 7.35938 18.2751 7.29688C18.4501 7.27813 18.5501 7.09063 18.472 6.93438C17.4563 4.925 15.3813 3.5375 12.9813 3.5C9.5157 3.44688 6.6282 6.2875 6.6282 9.74688C6.6282 11.7094 7.53133 13.4594 8.94695 14.6063C7.9532 15.0656 7.03758 15.7 6.24383 16.4938C4.53133 18.2031 3.56258 20.4594 3.50008 22.8687C3.49924 22.9021 3.50509 22.9353 3.51728 22.9663C3.52947 22.9974 3.54776 23.0257 3.57105 23.0496C3.59435 23.0735 3.6222 23.0924 3.65294 23.1054C3.68369 23.1183 3.71672 23.125 3.75008 23.125H5.5032C5.63758 23.125 5.75008 23.0187 5.7532 22.8844C5.81258 21.0719 6.54695 19.375 7.83758 18.0875C8.75633 17.1688 9.88133 16.5312 11.1095 16.2219C11.2313 16.1906 11.3126 16.075 11.297 15.95Z" fill="white"/>
</svg>
