<svg width="22" height="20" viewBox="0 0 22 20" fill="none" xmlns="http://www.w3.org/2000/svg">
<path d="M19.9531 6.08601C18.8257 4.53913 17.2507 3.50554 15.5234 3.03913V3.04148C15.1226 2.59617 14.6702 2.18601 14.164 1.82038C10.3273 -0.968678 4.94134 -0.117897 2.14056 3.71882C-0.116475 6.83601 -0.020381 11.029 2.28118 14.0079L2.29993 17.1157C2.29993 17.1907 2.31165 17.2657 2.33509 17.336C2.45931 17.7321 2.88118 17.9501 3.27493 17.8259L6.24212 16.8907C7.02728 17.1696 7.83821 17.329 8.64446 17.3735L8.63274 17.3829C10.721 18.904 13.4585 19.361 15.9687 18.5313L18.9476 19.5016C19.0226 19.5251 19.0999 19.5391 19.1796 19.5391C19.5945 19.5391 19.9296 19.204 19.9296 18.7891V15.6485C21.9945 12.8454 22.0484 8.97117 19.9531 6.08601ZM6.57024 15.2266L6.28899 15.1094L3.96868 15.836L3.94524 13.3985L3.75774 13.1876C1.77493 10.7688 1.64368 7.28367 3.49993 4.72663C5.75931 1.6282 10.0906 0.943822 13.1796 3.17976C16.2781 5.4321 16.9648 9.75632 14.7265 12.836C12.8491 15.4118 9.48821 16.3634 6.57024 15.2266ZM18.4062 14.8282L18.2187 15.0626L18.2421 17.5001L15.9452 16.7266L15.664 16.8438C14.3515 17.3313 12.9523 17.3712 11.6562 17.0079L11.6515 17.0055C13.3835 16.4735 14.9538 15.3954 16.0859 13.8438C17.8765 11.3759 18.1671 8.27507 17.1265 5.63132L17.1406 5.6407C17.6796 6.02742 18.1742 6.51023 18.5937 7.09382C20.2952 9.4282 20.1992 12.6063 18.4062 14.8282Z" fill="#212529" fill-opacity="0.6"/>
</svg>
