<svg width="30" height="20" viewBox="0 0 30 20" fill="none" xmlns="http://www.w3.org/2000/svg">
<path d="M15.9843 18.9102L29.7382 1.30078C29.7744 1.25477 29.797 1.19947 29.8032 1.14124C29.8094 1.08301 29.7991 1.0242 29.7734 0.971581C29.7477 0.918958 29.7076 0.874652 29.6579 0.843749C29.6081 0.812846 29.5507 0.796601 29.4921 0.796879L26.4726 0.796879C26.2812 0.796879 26.0976 0.886722 25.9804 1.03516L14.9999 15.0977L4.01947 1.03516C3.90228 0.882816 3.71869 0.796879 3.52728 0.796879L0.507751 0.796879C0.246033 0.796879 0.101501 1.09766 0.261658 1.30078L14.0156 18.9102C14.1323 19.0598 14.2817 19.1809 14.4522 19.2642C14.6228 19.3475 14.8101 19.3907 14.9999 19.3907C15.1898 19.3907 15.3771 19.3475 15.5477 19.2642C15.7182 19.1809 15.8676 19.0598 15.9843 18.9102Z" fill="#005B9C"/>
</svg>
