<svg width="22" height="23" viewBox="0 0 22 23" fill="none" xmlns="http://www.w3.org/2000/svg">
<path d="M6.84375 2.53125H6.625C6.74531 2.53125 6.84375 2.43281 6.84375 2.3125V2.53125ZM6.84375 2.53125H15.1562V2.3125C15.1562 2.43281 15.2547 2.53125 15.375 2.53125H15.1562V4.5H17.125V2.3125C17.125 1.34727 16.3402 0.5625 15.375 0.5625H6.625C5.65977 0.5625 4.875 1.34727 4.875 2.3125V4.5H6.84375V2.53125ZM20.625 4.5H1.375C0.891016 4.5 0.5 4.89102 0.5 5.375V6.25C0.5 6.37031 0.598437 6.46875 0.71875 6.46875H2.37031L3.0457 20.7695C3.08945 21.702 3.86055 22.4375 4.79297 22.4375H17.207C18.1422 22.4375 18.9105 21.7047 18.9543 20.7695L19.6297 6.46875H21.2812C21.4016 6.46875 21.5 6.37031 21.5 6.25V5.375C21.5 4.89102 21.109 4.5 20.625 4.5ZM16.9965 20.4688H5.00352L4.3418 6.46875H17.6582L16.9965 20.4688Z" fill="#005B9C"/>
</svg>
