<svg width="22" height="23" viewBox="0 0 22 23" fill="none" xmlns="http://www.w3.org/2000/svg">
<path d="M4.04648 18.0625C4.10117 18.0625 4.15586 18.057 4.21055 18.0488L8.80977 17.2422C8.86445 17.2313 8.91641 17.2066 8.95469 17.1656L20.5457 5.57461C20.5711 5.54931 20.5912 5.51927 20.6049 5.48619C20.6186 5.45311 20.6257 5.41765 20.6257 5.38184C20.6257 5.34602 20.6186 5.31056 20.6049 5.27749C20.5912 5.24441 20.5711 5.21436 20.5457 5.18906L16.0012 0.641797C15.9492 0.589844 15.8809 0.5625 15.807 0.5625C15.7332 0.5625 15.6648 0.589844 15.6129 0.641797L4.02187 12.2328C3.98086 12.2738 3.95625 12.323 3.94531 12.3777L3.13867 16.977C3.11207 17.1234 3.12158 17.2742 3.16636 17.4162C3.21115 17.5582 3.28987 17.6871 3.3957 17.7918C3.57617 17.9668 3.80313 18.0625 4.04648 18.0625ZM5.88945 13.2937L15.807 3.37891L17.8113 5.3832L7.89375 15.298L5.46289 15.7273L5.88945 13.2937ZM21.0625 20.3594H0.9375C0.453516 20.3594 0.0625 20.7504 0.0625 21.2344V22.2188C0.0625 22.3391 0.160937 22.4375 0.28125 22.4375H21.7188C21.8391 22.4375 21.9375 22.3391 21.9375 22.2188V21.2344C21.9375 20.7504 21.5465 20.3594 21.0625 20.3594Z" fill="#005B9C"/>
</svg>
