<svg width="22" height="22" viewBox="0 0 22 22" fill="none" xmlns="http://www.w3.org/2000/svg">
<path d="M21.2048 9.20342L21.1993 9.18154L18.1313 1.38584C17.9946 0.945605 17.5872 0.64209 17.1251 0.64209H4.68915C4.22431 0.64209 3.81142 0.951074 3.68017 1.39678L0.81181 9.11318L0.803607 9.13232L0.798138 9.1542C0.762591 9.28818 0.751654 9.4249 0.770794 9.55889C0.76806 9.60264 0.765326 9.64639 0.765326 9.69014V19.6952C0.766049 20.1359 0.941436 20.5584 1.25306 20.87C1.56468 21.1816 1.98713 21.357 2.42783 21.3577H19.5778C20.4938 21.3577 21.2403 20.6112 21.2431 19.6952V9.69014C21.2431 9.65459 21.2431 9.61904 21.2403 9.58897C21.2513 9.45498 21.2403 9.32646 21.2048 9.20342ZM13.1165 8.02764L13.1083 8.45693C13.0864 9.68467 12.2388 10.5105 11.0001 10.5105C10.3958 10.5105 9.87626 10.3163 9.50165 9.94717C9.12704 9.57803 8.92197 9.06396 8.91103 8.45693L8.90283 8.02764H3.27548L5.44931 2.74209H16.3649L18.5989 8.02764H13.1165ZM2.86259 10.1276H7.16376C7.82822 11.689 9.24189 12.6104 11.0028 12.6104C11.9243 12.6104 12.7802 12.3534 13.472 11.8667C14.079 11.4401 14.552 10.844 14.8583 10.1276H19.1376V19.2577H2.86259V10.1276Z" fill="#ADB5BD"/>
</svg>
