<svg width="17" height="18" viewBox="0 0 17 18" fill="none" xmlns="http://www.w3.org/2000/svg">
<path d="M15.8027 8.57617C15.873 8.3418 15.9082 8.09961 15.9082 7.85352C15.9082 7.30078 15.7266 6.76953 15.3984 6.33594C15.4688 6.10156 15.5039 5.85938 15.5039 5.61328C15.5039 5.06055 15.3223 4.5293 14.9941 4.0957C15.0645 3.86133 15.0996 3.61914 15.0996 3.37305C15.0996 2.36523 14.5 1.45703 13.5703 1.06055C13.4069 0.990095 13.2307 0.954187 13.0527 0.955078H3.83203V9.31445H3.83789L5.51367 15.3848C5.7832 16.3633 6.68164 17.0469 7.69727 17.0469C8.27734 17.0469 8.81836 16.8164 9.21875 16.3945C9.61914 15.9746 9.82422 15.4238 9.79492 14.8438L9.67773 12.4434H14.3633C14.5996 12.4434 14.8301 12.3809 15.0332 12.2617C15.8223 11.8027 16.3125 10.9707 16.3125 10.0938C16.3125 9.54102 16.1309 9.00977 15.8027 8.57617ZM0.6875 1.57812V8.6875C0.6875 9.0332 0.966797 9.3125 1.3125 9.3125H2.58203V0.953125H1.3125C0.966797 0.953125 0.6875 1.23242 0.6875 1.57812Z" fill="#DC3545" fill-opacity="0.8"/>
</svg>
