<svg width="19" height="18" viewBox="0 0 19 18" fill="none" xmlns="http://www.w3.org/2000/svg">
<path d="M9.5 0.25C4.66797 0.25 0.75 4.16797 0.75 9C0.75 13.832 4.66797 17.75 9.5 17.75C14.332 17.75 18.25 13.832 18.25 9C18.25 4.16797 14.332 0.25 9.5 0.25ZM9.5 14.0781C9.06836 14.0781 8.71875 13.7285 8.71875 13.2969C8.71875 12.8652 9.06836 12.5156 9.5 12.5156C9.93164 12.5156 10.2812 12.8652 10.2812 13.2969C10.2812 13.7285 9.93164 14.0781 9.5 14.0781ZM10.7285 9.79102C10.5516 9.85932 10.3994 9.97934 10.2918 10.1354C10.1841 10.2915 10.126 10.4764 10.125 10.666V11.1094C10.125 11.1953 10.0547 11.2656 9.96875 11.2656H9.03125C8.94531 11.2656 8.875 11.1953 8.875 11.1094V10.6895C8.875 10.2383 9.00586 9.79297 9.26367 9.42188C9.51562 9.05859 9.86719 8.78125 10.2812 8.62305C10.9453 8.36719 11.375 7.81055 11.375 7.20312C11.375 6.3418 10.5332 5.64062 9.5 5.64062C8.4668 5.64062 7.625 6.3418 7.625 7.20312V7.35156C7.625 7.4375 7.55469 7.50781 7.46875 7.50781H6.53125C6.44531 7.50781 6.375 7.4375 6.375 7.35156V7.20312C6.375 6.43555 6.71094 5.71875 7.32031 5.18555C7.90625 4.67188 8.67969 4.39062 9.5 4.39062C10.3203 4.39062 11.0938 4.67383 11.6797 5.18555C12.2891 5.71875 12.625 6.43555 12.625 7.20312C12.625 8.33203 11.8809 9.34766 10.7285 9.79102Z" fill="#ADB5BD"/>
</svg>
